<svg width="122" height="102" viewBox="0 0 122 102" fill="none" xmlns="http://www.w3.org/2000/svg">
<path opacity="0.15" d="M5.93604 97.4062C5.93604 98.4671 10.5717 99.4845 18.8233 100.235C27.0749 100.985 38.2665 101.406 49.936 101.406C61.6056 101.406 72.7971 100.985 81.0487 100.235C89.3003 99.4845 93.936 98.4671 93.936 97.4062C93.936 96.3454 89.3003 95.328 81.0487 94.5778C72.7971 93.8277 61.6056 93.4062 49.936 93.4062C38.2665 93.4062 27.0749 93.8277 18.8233 94.5778C10.5717 95.328 5.93604 96.3454 5.93604 97.4062Z" fill="#260F08"/>
<path d="M117.483 11.2197L70.3359 16.9797L74.6559 52.3397L119.429 46.8731C119.742 46.8368 120.044 46.7388 120.319 46.5847C120.593 46.4305 120.834 46.2233 121.028 45.9752C121.221 45.727 121.363 45.4428 121.446 45.1392C121.529 44.8355 121.55 44.5184 121.509 44.2064L117.483 11.2197Z" fill="#87635A"/>
<path d="M72.0615 31.1424L119.208 25.3877L120.643 37.1664L73.5015 42.9237L72.0615 31.1424Z" fill="#AD8A85"/>
<path d="M83.1359 23.7797C83.0496 23.1561 82.7217 22.5913 82.2228 22.2073C81.724 21.8232 81.0942 21.6504 80.4693 21.7263C80.159 21.7658 79.8596 21.8662 79.5883 22.0217C79.3169 22.1773 79.079 22.385 78.8882 22.6328C78.6974 22.8806 78.5574 23.1637 78.4764 23.4658C78.3953 23.7678 78.3748 24.083 78.4159 24.393L78.7093 26.7397C78.7447 27.6346 78.4427 28.5101 77.8633 29.193C77.2838 29.8758 76.469 30.3162 75.5803 30.4268C74.6916 30.5375 73.7937 30.3104 73.0645 29.7905C72.3352 29.2707 71.8278 28.4959 71.6426 27.6197L70.3359 16.953L84.8159 0.0730139C104.069 -0.620319 118.949 3.67301 119.829 10.873L121.109 21.4063C121.132 21.5856 121.112 21.7677 121.053 21.9383C120.993 22.1089 120.895 22.2635 120.766 22.3899C120.637 22.5164 120.481 22.6114 120.309 22.6674C120.137 22.7234 119.955 22.739 119.776 22.713C118.792 22.526 117.894 22.0291 117.212 21.295C116.531 20.5609 116.103 19.6281 115.989 18.633C115.951 18.3231 115.852 18.0238 115.697 17.7522C115.543 17.4806 115.337 17.2421 115.091 17.0502C114.844 16.8582 114.562 16.7168 114.261 16.6337C113.96 16.5507 113.646 16.5278 113.336 16.5663C112.71 16.6441 112.141 16.9674 111.753 17.465C111.561 17.7114 111.42 17.9931 111.337 18.2942C111.254 18.5953 111.231 18.9098 111.269 19.2197L111.563 21.5663C111.601 21.8763 111.578 22.1907 111.495 22.4918C111.412 22.7929 111.271 23.0746 111.079 23.321C110.887 23.5674 110.648 23.7736 110.377 23.9278C110.105 24.082 109.806 24.1812 109.496 24.2197C109.186 24.2582 108.872 24.2353 108.57 24.1523C108.269 24.0693 107.988 23.9278 107.741 23.7359C107.495 23.544 107.289 23.3054 107.135 23.0338C106.98 22.7622 106.881 22.4629 106.843 22.153C106.806 21.8431 106.708 21.5435 106.556 21.2712C106.403 20.9989 106.199 20.7594 105.953 20.5663C105.708 20.3731 105.427 20.2301 105.127 20.1455C104.827 20.0609 104.513 20.0362 104.203 20.073C103.893 20.1098 103.593 20.2072 103.321 20.3598C103.049 20.5124 102.809 20.7171 102.616 20.9622C102.226 21.4573 102.048 22.0871 102.123 22.713L102.416 25.0863C102.568 26.3382 102.217 27.5991 101.439 28.5918C100.661 29.5845 99.5211 30.2276 98.2693 30.3797C97.0174 30.5317 95.7565 30.1803 94.7638 29.4026C93.7711 28.625 93.128 27.4848 92.9759 26.233L92.5493 22.6863C92.5133 22.3746 92.4151 22.0733 92.2606 21.8002C92.1061 21.5271 91.8984 21.2877 91.6498 21.0962C91.4012 20.9048 91.1167 20.7652 90.8131 20.6856C90.5096 20.606 90.1932 20.5882 89.8826 20.633C89.2541 20.713 88.6828 21.0382 88.2931 21.5377C87.9035 22.0373 87.7271 22.6706 87.8026 23.2997L87.9626 24.473C88.0404 25.0989 87.8664 25.7301 87.4788 26.2277C87.0912 26.7253 86.5219 27.0486 85.8959 27.1263C85.27 27.2041 84.6388 27.0301 84.1412 26.6425C83.6437 26.255 83.3204 25.6856 83.2426 25.0597L83.1359 23.7797Z" fill="#CAAFA7"/>
<path d="M78.5762 15.9662L112.763 11.8062" stroke="white" stroke-width="0.973958" stroke-linecap="round" stroke-linejoin="round"/>
<path d="M4.94918 38.793C3.98918 47.273 21.6958 56.233 44.4158 58.7396C67.1358 61.2463 86.4958 56.5796 87.4558 48.073L83.5092 83.5663C82.5492 92.0463 63.2692 96.8996 40.4692 94.233C17.6692 91.5663 -0.0374834 82.7396 0.922517 74.1796L4.94918 38.793Z" fill="#87635A"/>
<path d="M3.32274 52.9531C2.36274 61.4065 20.0694 70.3931 42.8961 72.9798C65.7227 75.5665 84.9494 70.7931 85.9094 62.3131L84.5761 74.0998C83.6161 82.5798 64.3361 87.4331 41.5361 84.7665C18.7361 82.0998 1.02941 73.2198 1.98941 64.7398L3.32274 52.9531Z" fill="#AD8A85"/>
<path d="M58.3359 29.7795C55.0292 29.1128 51.5626 28.5528 47.9892 28.1528C23.9892 25.4861 3.5359 30.0461 2.6559 38.5261L0.52257 57.4061C0.470041 57.8701 0.509419 58.3399 0.638455 58.7887C0.767492 59.2375 0.98366 59.6565 1.27462 60.0217C1.86223 60.7594 2.7188 61.2334 3.6559 61.3395C4.593 61.4455 5.53386 61.175 6.2715 60.5874C7.00915 59.9998 7.48315 59.1432 7.58924 58.2061C7.62014 57.7233 7.74877 57.2518 7.96733 56.8202C8.18589 56.3885 8.48982 56.0058 8.8607 55.6951C9.23159 55.3844 9.66169 55.1523 10.125 55.0128C10.5882 54.8733 11.075 54.8293 11.5557 54.8836C12.0365 54.9378 12.5012 55.0891 12.9218 55.3283C13.3423 55.5674 13.71 55.8895 14.0023 56.275C14.2947 56.6605 14.5057 57.1013 14.6227 57.5708C14.7396 58.0402 14.76 58.5285 14.6826 59.0061L13.8826 66.0994C13.7058 67.6625 14.1571 69.2317 15.1373 70.4619C16.1175 71.6922 17.5462 72.4826 19.1092 72.6595C20.6722 72.8363 22.2415 72.3849 23.4717 71.4047C24.702 70.4245 25.4924 68.9958 25.6692 67.4328C25.7753 66.4957 26.2493 65.6391 26.987 65.0515C27.7246 64.4639 28.6655 64.1934 29.6026 64.2994C30.5397 64.4055 31.3962 64.8795 31.9839 65.6172C32.5715 66.3548 32.842 67.2957 32.7359 68.2328L32.4692 70.5794C32.3978 71.5005 32.6858 72.4134 33.273 73.1267C33.8601 73.84 34.7006 74.2982 35.6182 74.4051C36.5358 74.512 37.4592 74.2594 38.1946 73.7003C38.93 73.1412 39.4203 72.3189 39.5626 71.4061L39.6959 70.2061C39.8762 68.6431 40.6701 67.2158 41.9029 66.2381C43.1356 65.2604 44.7062 64.8124 46.2692 64.9928C47.8322 65.1731 49.2596 65.967 50.2373 67.1997C51.215 68.4325 51.6629 70.0031 51.4826 71.5661L51.0826 75.0861C51.0111 76.0072 51.2992 76.9201 51.8863 77.6334C52.4734 78.3467 53.3139 78.8048 54.2316 78.9118C55.1492 79.0187 56.0725 78.7661 56.8079 78.207C57.5434 77.6478 58.0336 76.8256 58.1759 75.9128L59.1092 67.6461C59.1734 67.3585 59.3434 67.1056 59.5855 66.9376C59.8276 66.7696 60.124 66.6989 60.4159 66.7395C60.5718 66.7524 60.7234 66.7971 60.8614 66.8708C60.9993 66.9445 61.1208 67.0457 61.2182 67.1681C61.3156 67.2905 61.387 67.4315 61.4278 67.5825C61.4687 67.7335 61.4783 67.8913 61.4559 68.0461C61.327 69.5881 61.8042 71.1195 62.7861 72.3153C63.768 73.5112 65.1774 74.2772 66.7149 74.4507C68.2525 74.6243 69.7971 74.1917 71.0209 73.2448C72.2447 72.2979 73.0512 70.9113 73.2692 69.3795L73.8026 64.6595C73.9087 63.7224 74.3827 62.8658 75.1203 62.2782C75.8579 61.6906 76.7988 61.42 77.7359 61.5261C78.673 61.6322 79.5296 62.1062 80.1172 62.8439C80.7048 63.5815 80.9753 64.5224 80.8692 65.4595C80.7978 66.3805 81.0858 67.2935 81.673 68.0067C82.2601 68.72 83.1006 69.1782 84.0182 69.2851C84.9358 69.392 85.8592 69.1395 86.5946 68.5803C87.33 68.0212 87.8203 67.1989 87.9626 66.2861L89.7492 50.7395C89.7902 50.4274 89.7687 50.1103 89.686 49.8067C89.6033 49.503 89.4611 49.2188 89.2675 48.9707C89.0739 48.7225 88.8329 48.5153 88.5586 48.3612C88.2842 48.207 87.9819 48.109 87.6692 48.0728L41.6426 42.7395L58.3359 29.7795Z" fill="#CAAFA7"/>
<path d="M56.6559 44.6598L58.3359 29.7798L41.5093 42.9531L56.6559 44.6598Z" fill="#87635A"/>
<path d="M7.29591 39.0596C6.62925 44.9262 23.5359 51.6462 45.0292 54.0996C59.8026 55.7796 72.8959 55.0062 79.8826 52.4462" stroke="white" stroke-width="0.973958" stroke-linecap="round" stroke-linejoin="round"/>
</svg>
